<svg width="20" height="17" viewBox="0 0 20 17" fill="none" xmlns="http://www.w3.org/2000/svg">
<path fill-rule="evenodd" clip-rule="evenodd" d="M12.1958 15.255L18.4577 9.05233C21.6037 5.93751 19.2883 0.151123 14.7357 0.151123C12.7248 0.151123 11.3606 1.3352 9.99959 2.68338C8.647 1.34356 7.30656 0.15163 5.26345 0.15163C0.674443 0.15163 -1.66418 5.8769 1.54152 9.05233L7.80337 15.2551C9.00952 16.4498 10.9897 16.4498 12.1958 15.255ZM2.12798 8.46028L8.38982 14.663C9.27119 15.5361 10.728 15.5361 11.6094 14.663L17.8712 8.46028C20.6138 5.74487 18.4222 0.984456 14.7357 0.984456C12.6371 0.984456 11.3664 2.50239 9.99959 3.85634C8.63045 2.50012 7.36498 0.984963 5.26345 0.984963C1.40826 0.984963 -0.569242 5.78853 2.12798 8.46028Z" fill="#333333"/>
</svg>
